# MagicaVoxel @ Ephtracy

# material
mtllib Life.mtl
usemtl palette

# normals
vn -1 0 0
vn 1 0 0
vn 0 0 1
vn 0 0 -1
vn 0 -1 0
vn 0 1 0

# texcoords
vt 0.853516 0.5
vt 0.962891 0.5
vt 0.994141 0.5

# verts
v -7 5 0.5
v -7 5 -0.5
v -7 11 0.5
v -7 11 -0.5
v -6 4 0.5
v -6 4 -0.5
v -6 5 0.5
v -6 5 -0.5
v -6 11 0.5
v -6 11 -0.5
v -6 12 0.5
v -6 12 -0.5
v -5 3 0.5
v -5 3 -0.5
v -5 4 0.5
v -5 4 -0.5
v -5 12 0.5
v -5 12 -0.5
v -5 13 0.5
v -5 13 -0.5
v -4 2 0.5
v -4 2 -0.5
v -4 3 0.5
v -4 3 -0.5
v -3 1 0.5
v -3 1 -0.5
v -3 2 0.5
v -3 2 -0.5
v -2 0 0.5
v -2 0 -0.5
v -2 1 0.5
v -2 1 -0.5
v 1 12 0.5
v 1 12 -0.5
v 1 13 0.5
v 1 13 -0.5
v -1 12 0.5
v -1 12 -0.5
v -1 13 0.5
v -1 13 -0.5
v 2 0 0.5
v 2 0 -0.5
v 2 1 0.5
v 2 1 -0.5
v 3 1 0.5
v 3 1 -0.5
v 3 2 0.5
v 3 2 -0.5
v 4 2 0.5
v 4 2 -0.5
v 4 3 0.5
v 4 3 -0.5
v 5 3 0.5
v 5 3 -0.5
v 5 4 0.5
v 5 4 -0.5
v 5 12 0.5
v 5 12 -0.5
v 5 13 0.5
v 5 13 -0.5
v 6 4 0.5
v 6 4 -0.5
v 6 5 0.5
v 6 5 -0.5
v 6 11 0.5
v 6 11 -0.5
v 6 12 0.5
v 6 12 -0.5
v 7 5 0.5
v 7 5 -0.5
v 7 11 0.5
v 7 11 -0.5
v -7 5 0.5
v -7 11 0.5
v -6 4 0.5
v -6 5 0.5
v -6 6 0.5
v -6 10 0.5
v -6 11 0.5
v -6 12 0.5
v -5 3 0.5
v -5 4 0.5
v -5 5 0.5
v -5 6 0.5
v -5 8 0.5
v -5 10 0.5
v -5 11 0.5
v -5 12 0.5
v -5 13 0.5
v -4 2 0.5
v -4 3 0.5
v -4 4 0.5
v -4 5 0.5
v -4 8 0.5
v -4 9 0.5
v -4 11 0.5
v -4 12 0.5
v -3 1 0.5
v -3 2 0.5
v -3 3 0.5
v -3 4 0.5
v -3 9 0.5
v -3 10 0.5
v -2 0 0.5
v -2 1 0.5
v -2 2 0.5
v -2 3 0.5
v -2 11 0.5
v -2 12 0.5
v -1 1 0.5
v -1 2 0.5
v -1 10 0.5
v -1 11 0.5
v -1 12 0.5
v -1 13 0.5
v 1 1 0.5
v 1 2 0.5
v 1 10 0.5
v 1 11 0.5
v 1 12 0.5
v 1 13 0.5
v 2 0 0.5
v 2 1 0.5
v 2 2 0.5
v 2 3 0.5
v 2 11 0.5
v 2 12 0.5
v 3 1 0.5
v 3 2 0.5
v 3 3 0.5
v 3 4 0.5
v 4 2 0.5
v 4 3 0.5
v 4 4 0.5
v 4 5 0.5
v 4 11 0.5
v 4 12 0.5
v 5 3 0.5
v 5 4 0.5
v 5 5 0.5
v 5 6 0.5
v 5 10 0.5
v 5 11 0.5
v 5 12 0.5
v 5 13 0.5
v 6 4 0.5
v 6 5 0.5
v 6 6 0.5
v 6 10 0.5
v 6 11 0.5
v 6 12 0.5
v 7 5 0.5
v 7 11 0.5
v -7 5 -0.5
v -7 11 -0.5
v -6 4 -0.5
v -6 5 -0.5
v -6 6 -0.5
v -6 10 -0.5
v -6 11 -0.5
v -6 12 -0.5
v -5 3 -0.5
v -5 4 -0.5
v -5 5 -0.5
v -5 6 -0.5
v -5 8 -0.5
v -5 10 -0.5
v -5 11 -0.5
v -5 12 -0.5
v -5 13 -0.5
v -4 2 -0.5
v -4 3 -0.5
v -4 4 -0.5
v -4 5 -0.5
v -4 8 -0.5
v -4 9 -0.5
v -4 11 -0.5
v -4 12 -0.5
v -3 1 -0.5
v -3 2 -0.5
v -3 3 -0.5
v -3 4 -0.5
v -3 9 -0.5
v -3 10 -0.5
v -2 0 -0.5
v -2 1 -0.5
v -2 2 -0.5
v -2 3 -0.5
v -2 11 -0.5
v -2 12 -0.5
v -1 1 -0.5
v -1 2 -0.5
v -1 10 -0.5
v -1 11 -0.5
v -1 12 -0.5
v -1 13 -0.5
v 1 1 -0.5
v 1 2 -0.5
v 1 10 -0.5
v 1 11 -0.5
v 1 12 -0.5
v 1 13 -0.5
v 2 0 -0.5
v 2 1 -0.5
v 2 2 -0.5
v 2 3 -0.5
v 2 11 -0.5
v 2 12 -0.5
v 3 1 -0.5
v 3 2 -0.5
v 3 3 -0.5
v 3 4 -0.5
v 4 2 -0.5
v 4 3 -0.5
v 4 4 -0.5
v 4 5 -0.5
v 4 11 -0.5
v 4 12 -0.5
v 5 3 -0.5
v 5 4 -0.5
v 5 5 -0.5
v 5 6 -0.5
v 5 10 -0.5
v 5 11 -0.5
v 5 12 -0.5
v 5 13 -0.5
v 6 4 -0.5
v 6 5 -0.5
v 6 6 -0.5
v 6 10 -0.5
v 6 11 -0.5
v 6 12 -0.5
v 7 5 -0.5
v 7 11 -0.5
v -2 0 0.5
v 2 0 0.5
v -2 0 -0.5
v 2 0 -0.5
v -3 1 0.5
v -2 1 0.5
v 2 1 0.5
v 3 1 0.5
v -3 1 -0.5
v -2 1 -0.5
v 2 1 -0.5
v 3 1 -0.5
v -4 2 0.5
v -3 2 0.5
v 3 2 0.5
v 4 2 0.5
v -4 2 -0.5
v -3 2 -0.5
v 3 2 -0.5
v 4 2 -0.5
v -5 3 0.5
v -4 3 0.5
v 4 3 0.5
v 5 3 0.5
v -5 3 -0.5
v -4 3 -0.5
v 4 3 -0.5
v 5 3 -0.5
v -6 4 0.5
v -5 4 0.5
v 5 4 0.5
v 6 4 0.5
v -6 4 -0.5
v -5 4 -0.5
v 5 4 -0.5
v 6 4 -0.5
v -7 5 0.5
v -6 5 0.5
v 6 5 0.5
v 7 5 0.5
v -7 5 -0.5
v -6 5 -0.5
v 6 5 -0.5
v 7 5 -0.5
v -7 11 0.5
v -6 11 0.5
v 6 11 0.5
v 7 11 0.5
v -7 11 -0.5
v -6 11 -0.5
v 6 11 -0.5
v 7 11 -0.5
v -6 12 0.5
v -5 12 0.5
v -1 12 0.5
v 1 12 0.5
v 5 12 0.5
v 6 12 0.5
v -6 12 -0.5
v -5 12 -0.5
v -1 12 -0.5
v 1 12 -0.5
v 5 12 -0.5
v 6 12 -0.5
v -5 13 0.5
v -1 13 0.5
v 1 13 0.5
v 5 13 0.5
v -5 13 -0.5
v -1 13 -0.5
v 1 13 -0.5
v 5 13 -0.5

# faces
f 3/3/1 2/3/1 1/3/1
f 4/3/1 2/3/1 3/3/1
f 7/3/1 6/3/1 5/3/1
f 8/3/1 6/3/1 7/3/1
f 11/3/1 10/3/1 9/3/1
f 12/3/1 10/3/1 11/3/1
f 15/3/1 14/3/1 13/3/1
f 16/3/1 14/3/1 15/3/1
f 19/3/1 18/3/1 17/3/1
f 20/3/1 18/3/1 19/3/1
f 23/3/1 22/3/1 21/3/1
f 24/3/1 22/3/1 23/3/1
f 27/3/1 26/3/1 25/3/1
f 28/3/1 26/3/1 27/3/1
f 31/3/1 30/3/1 29/3/1
f 32/3/1 30/3/1 31/3/1
f 35/3/1 34/3/1 33/3/1
f 36/3/1 34/3/1 35/3/1
f 37/3/2 38/3/2 39/3/2
f 39/3/2 38/3/2 40/3/2
f 41/3/2 42/3/2 43/3/2
f 43/3/2 42/3/2 44/3/2
f 45/3/2 46/3/2 47/3/2
f 47/3/2 46/3/2 48/3/2
f 49/3/2 50/3/2 51/3/2
f 51/3/2 50/3/2 52/3/2
f 53/3/2 54/3/2 55/3/2
f 55/3/2 54/3/2 56/3/2
f 57/3/2 58/3/2 59/3/2
f 59/3/2 58/3/2 60/3/2
f 61/3/2 62/3/2 63/3/2
f 63/3/2 62/3/2 64/3/2
f 65/3/2 66/3/2 67/3/2
f 67/3/2 66/3/2 68/3/2
f 69/3/2 70/3/2 71/3/2
f 71/3/2 70/3/2 72/3/2
f 76/3/3 74/3/3 73/3/3
f 77/3/3 74/3/3 76/3/3
f 78/3/3 74/3/3 77/3/3
f 79/3/3 74/3/3 78/3/3
f 82/3/3 76/3/3 75/3/3
f 82/3/3 77/3/3 76/3/3
f 83/3/3 77/3/3 82/3/3
f 84/1/3 78/1/3 77/1/3
f 84/3/3 77/3/3 83/3/3
f 85/1/3 78/1/3 84/1/3
f 86/3/3 80/3/3 79/3/3
f 86/1/3 78/1/3 85/1/3
f 86/3/3 79/3/3 78/3/3
f 87/3/3 80/3/3 86/3/3
f 88/3/3 80/3/3 87/3/3
f 91/3/3 83/3/3 82/3/3
f 91/3/3 82/3/3 81/3/3
f 92/3/3 83/3/3 91/3/3
f 93/1/3 85/1/3 84/1/3
f 93/3/3 83/3/3 92/3/3
f 93/1/3 84/1/3 83/1/3
f 94/2/3 86/2/3 85/2/3
f 94/1/3 85/1/3 93/1/3
f 95/2/3 86/2/3 94/2/3
f 96/3/3 89/3/3 88/3/3
f 96/3/3 88/3/3 87/3/3
f 96/1/3 87/1/3 86/1/3
f 97/3/3 89/3/3 96/3/3
f 99/3/3 92/3/3 91/3/3
f 99/3/3 91/3/3 90/3/3
f 100/3/3 92/3/3 99/3/3
f 101/1/3 95/1/3 94/1/3
f 101/3/3 92/3/3 100/3/3
f 101/1/3 93/1/3 92/1/3
f 101/1/3 94/1/3 93/1/3
f 102/2/3 86/2/3 95/2/3
f 102/1/3 95/1/3 101/1/3
f 103/1/3 97/1/3 96/1/3
f 103/2/3 86/2/3 102/2/3
f 103/1/3 96/1/3 86/1/3
f 105/3/3 100/3/3 99/3/3
f 105/3/3 99/3/3 98/3/3
f 106/3/3 100/3/3 105/3/3
f 107/1/3 102/1/3 101/1/3
f 107/3/3 100/3/3 106/3/3
f 107/1/3 101/1/3 100/1/3
f 107/1/3 103/1/3 102/1/3
f 108/1/3 97/1/3 103/1/3
f 108/1/3 103/1/3 107/1/3
f 109/3/3 89/3/3 97/3/3
f 109/1/3 97/1/3 108/1/3
f 110/3/3 106/3/3 105/3/3
f 110/3/3 105/3/3 104/3/3
f 111/1/3 108/1/3 107/1/3
f 111/3/3 106/3/3 110/3/3
f 111/1/3 107/1/3 106/1/3
f 112/1/3 108/1/3 111/1/3
f 113/3/3 109/3/3 108/3/3
f 113/1/3 108/1/3 112/1/3
f 114/3/3 89/3/3 109/3/3
f 114/3/3 109/3/3 113/3/3
f 115/3/3 89/3/3 114/3/3
f 116/3/3 110/3/3 104/3/3
f 116/1/3 112/1/3 111/1/3
f 116/1/3 111/1/3 110/1/3
f 117/1/3 112/1/3 116/1/3
f 118/3/3 113/3/3 112/3/3
f 118/1/3 112/1/3 117/1/3
f 118/3/3 114/3/3 113/3/3
f 119/3/3 114/3/3 118/3/3
f 120/3/3 114/3/3 119/3/3
f 122/3/3 117/3/3 116/3/3
f 122/3/3 116/3/3 104/3/3
f 123/3/3 117/3/3 122/3/3
f 124/1/3 118/1/3 117/1/3
f 124/3/3 117/3/3 123/3/3
f 124/1/3 119/1/3 118/1/3
f 125/1/3 119/1/3 124/1/3
f 126/3/3 121/3/3 120/3/3
f 126/1/3 119/1/3 125/1/3
f 126/3/3 120/3/3 119/3/3
f 127/3/3 121/3/3 126/3/3
f 128/3/3 125/3/3 124/3/3
f 128/3/3 124/3/3 123/3/3
f 129/3/3 125/3/3 128/3/3
f 130/1/3 127/1/3 126/1/3
f 130/3/3 125/3/3 129/3/3
f 130/1/3 126/1/3 125/1/3
f 131/1/3 127/1/3 130/1/3
f 132/3/3 130/3/3 129/3/3
f 132/3/3 131/3/3 130/3/3
f 133/3/3 131/3/3 132/3/3
f 134/1/3 127/1/3 131/1/3
f 134/3/3 131/3/3 133/3/3
f 135/1/3 127/1/3 134/1/3
f 136/1/3 127/1/3 135/1/3
f 137/3/3 121/3/3 127/3/3
f 137/1/3 127/1/3 136/1/3
f 138/3/3 134/3/3 133/3/3
f 138/3/3 135/3/3 134/3/3
f 139/3/3 135/3/3 138/3/3
f 140/1/3 136/1/3 135/1/3
f 140/3/3 135/3/3 139/3/3
f 141/1/3 136/1/3 140/1/3
f 142/1/3 136/1/3 141/1/3
f 143/3/3 137/3/3 136/3/3
f 143/1/3 136/1/3 142/1/3
f 144/3/3 121/3/3 137/3/3
f 144/3/3 137/3/3 143/3/3
f 145/3/3 121/3/3 144/3/3
f 146/3/3 140/3/3 139/3/3
f 146/3/3 141/3/3 140/3/3
f 147/3/3 141/3/3 146/3/3
f 148/1/3 142/1/3 141/1/3
f 148/3/3 141/3/3 147/3/3
f 149/3/3 143/3/3 142/3/3
f 149/1/3 142/1/3 148/1/3
f 149/3/3 144/3/3 143/3/3
f 150/3/3 144/3/3 149/3/3
f 151/3/3 144/3/3 150/3/3
f 152/3/3 148/3/3 147/3/3
f 152/3/3 150/3/3 149/3/3
f 152/3/3 149/3/3 148/3/3
f 153/3/3 150/3/3 152/3/3
f 154/3/4 155/3/4 157/3/4
f 157/3/4 155/3/4 158/3/4
f 158/3/4 155/3/4 159/3/4
f 159/3/4 155/3/4 160/3/4
f 156/3/4 157/3/4 163/3/4
f 157/3/4 158/3/4 163/3/4
f 163/3/4 158/3/4 164/3/4
f 158/1/4 159/1/4 165/1/4
f 164/3/4 158/3/4 165/3/4
f 165/1/4 159/1/4 166/1/4
f 160/3/4 161/3/4 167/3/4
f 166/1/4 159/1/4 167/1/4
f 159/3/4 160/3/4 167/3/4
f 167/3/4 161/3/4 168/3/4
f 168/3/4 161/3/4 169/3/4
f 163/3/4 164/3/4 172/3/4
f 162/3/4 163/3/4 172/3/4
f 172/3/4 164/3/4 173/3/4
f 165/1/4 166/1/4 174/1/4
f 173/3/4 164/3/4 174/3/4
f 164/1/4 165/1/4 174/1/4
f 166/2/4 167/2/4 175/2/4
f 174/1/4 166/1/4 175/1/4
f 175/2/4 167/2/4 176/2/4
f 169/3/4 170/3/4 177/3/4
f 168/3/4 169/3/4 177/3/4
f 167/1/4 168/1/4 177/1/4
f 177/3/4 170/3/4 178/3/4
f 172/3/4 173/3/4 180/3/4
f 171/3/4 172/3/4 180/3/4
f 180/3/4 173/3/4 181/3/4
f 175/1/4 176/1/4 182/1/4
f 181/3/4 173/3/4 182/3/4
f 173/1/4 174/1/4 182/1/4
f 174/1/4 175/1/4 182/1/4
f 176/2/4 167/2/4 183/2/4
f 182/1/4 176/1/4 183/1/4
f 177/1/4 178/1/4 184/1/4
f 183/2/4 167/2/4 184/2/4
f 167/1/4 177/1/4 184/1/4
f 180/3/4 181/3/4 186/3/4
f 179/3/4 180/3/4 186/3/4
f 186/3/4 181/3/4 187/3/4
f 182/1/4 183/1/4 188/1/4
f 187/3/4 181/3/4 188/3/4
f 181/1/4 182/1/4 188/1/4
f 183/1/4 184/1/4 188/1/4
f 184/1/4 178/1/4 189/1/4
f 188/1/4 184/1/4 189/1/4
f 178/3/4 170/3/4 190/3/4
f 189/1/4 178/1/4 190/1/4
f 186/3/4 187/3/4 191/3/4
f 185/3/4 186/3/4 191/3/4
f 188/1/4 189/1/4 192/1/4
f 191/3/4 187/3/4 192/3/4
f 187/1/4 188/1/4 192/1/4
f 192/1/4 189/1/4 193/1/4
f 189/3/4 190/3/4 194/3/4
f 193/1/4 189/1/4 194/1/4
f 190/3/4 170/3/4 195/3/4
f 194/3/4 190/3/4 195/3/4
f 195/3/4 170/3/4 196/3/4
f 185/3/4 191/3/4 197/3/4
f 192/1/4 193/1/4 197/1/4
f 191/1/4 192/1/4 197/1/4
f 197/1/4 193/1/4 198/1/4
f 193/3/4 194/3/4 199/3/4
f 198/1/4 193/1/4 199/1/4
f 194/3/4 195/3/4 199/3/4
f 199/3/4 195/3/4 200/3/4
f 200/3/4 195/3/4 201/3/4
f 197/3/4 198/3/4 203/3/4
f 185/3/4 197/3/4 203/3/4
f 203/3/4 198/3/4 204/3/4
f 198/1/4 199/1/4 205/1/4
f 204/3/4 198/3/4 205/3/4
f 199/1/4 200/1/4 205/1/4
f 205/1/4 200/1/4 206/1/4
f 201/3/4 202/3/4 207/3/4
f 206/1/4 200/1/4 207/1/4
f 200/3/4 201/3/4 207/3/4
f 207/3/4 202/3/4 208/3/4
f 205/3/4 206/3/4 209/3/4
f 204/3/4 205/3/4 209/3/4
f 209/3/4 206/3/4 210/3/4
f 207/1/4 208/1/4 211/1/4
f 210/3/4 206/3/4 211/3/4
f 206/1/4 207/1/4 211/1/4
f 211/1/4 208/1/4 212/1/4
f 210/3/4 211/3/4 213/3/4
f 211/3/4 212/3/4 213/3/4
f 213/3/4 212/3/4 214/3/4
f 212/1/4 208/1/4 215/1/4
f 214/3/4 212/3/4 215/3/4
f 215/1/4 208/1/4 216/1/4
f 216/1/4 208/1/4 217/1/4
f 208/3/4 202/3/4 218/3/4
f 217/1/4 208/1/4 218/1/4
f 214/3/4 215/3/4 219/3/4
f 215/3/4 216/3/4 219/3/4
f 219/3/4 216/3/4 220/3/4
f 216/1/4 217/1/4 221/1/4
f 220/3/4 216/3/4 221/3/4
f 221/1/4 217/1/4 222/1/4
f 222/1/4 217/1/4 223/1/4
f 217/3/4 218/3/4 224/3/4
f 223/1/4 217/1/4 224/1/4
f 218/3/4 202/3/4 225/3/4
f 224/3/4 218/3/4 225/3/4
f 225/3/4 202/3/4 226/3/4
f 220/3/4 221/3/4 227/3/4
f 221/3/4 222/3/4 227/3/4
f 227/3/4 222/3/4 228/3/4
f 222/1/4 223/1/4 229/1/4
f 228/3/4 222/3/4 229/3/4
f 223/3/4 224/3/4 230/3/4
f 229/1/4 223/1/4 230/1/4
f 224/3/4 225/3/4 230/3/4
f 230/3/4 225/3/4 231/3/4
f 231/3/4 225/3/4 232/3/4
f 228/3/4 229/3/4 233/3/4
f 230/3/4 231/3/4 233/3/4
f 229/3/4 230/3/4 233/3/4
f 233/3/4 231/3/4 234/3/4
f 237/3/5 236/3/5 235/3/5
f 238/3/5 236/3/5 237/3/5
f 243/3/5 240/3/5 239/3/5
f 244/3/5 240/3/5 243/3/5
f 245/3/5 242/3/5 241/3/5
f 246/3/5 242/3/5 245/3/5
f 251/3/5 248/3/5 247/3/5
f 252/3/5 248/3/5 251/3/5
f 253/3/5 250/3/5 249/3/5
f 254/3/5 250/3/5 253/3/5
f 259/3/5 256/3/5 255/3/5
f 260/3/5 256/3/5 259/3/5
f 261/3/5 258/3/5 257/3/5
f 262/3/5 258/3/5 261/3/5
f 267/3/5 264/3/5 263/3/5
f 268/3/5 264/3/5 267/3/5
f 269/3/5 266/3/5 265/3/5
f 270/3/5 266/3/5 269/3/5
f 275/3/5 272/3/5 271/3/5
f 276/3/5 272/3/5 275/3/5
f 277/3/5 274/3/5 273/3/5
f 278/3/5 274/3/5 277/3/5
f 279/3/6 280/3/6 283/3/6
f 283/3/6 280/3/6 284/3/6
f 281/3/6 282/3/6 285/3/6
f 285/3/6 282/3/6 286/3/6
f 287/3/6 288/3/6 293/3/6
f 293/3/6 288/3/6 294/3/6
f 289/3/6 290/3/6 295/3/6
f 295/3/6 290/3/6 296/3/6
f 291/3/6 292/3/6 297/3/6
f 297/3/6 292/3/6 298/3/6
f 299/3/6 300/3/6 303/3/6
f 303/3/6 300/3/6 304/3/6
f 301/3/6 302/3/6 305/3/6
f 305/3/6 302/3/6 306/3/6
