# MagicaVoxel @ Ephtracy

# material
mtllib Enemy1.1.mtl
usemtl palette

# normals
vn -1 0 0
vn 1 0 0
vn 0 0 1
vn 0 0 -1
vn 0 -1 0
vn 0 1 0

# texcoords
vt 0.552734 0.5
vt 0.806641 0.5
vt 0.962891 0.5
vt 0.974609 0.5
vt 0.982422 0.5
vt 0.986328 0.5
vt 0.990234 0.5

# verts
v -10 0 15
v -10 0 14
v -10 0 8
v -10 0 7
v -10 0 6
v -10 0 3
v -10 5 15
v -10 5 14
v -10 5 8
v -10 5 7
v -10 5 6
v -10 5 3
v -6 1 15
v -6 1 14
v -6 1 4
v -6 1 3
v -6 4 15
v -6 4 14
v -6 4 4
v -6 4 3
v -4 0 10
v -4 0 -1
v -4 1 9
v -4 1 4
v -4 4 9
v -4 4 4
v -4 5 10
v -4 5 -1
v -2 5 9
v -2 5 3
v -2 6 4
v -2 6 3
v -2 7 9
v -2 7 4
v 1 5 9
v 1 5 3
v 1 6 4
v 1 6 3
v 1 7 9
v 1 7 4
v 5 0 15
v 5 0 14
v 5 0 8
v 5 0 7
v 5 0 6
v 5 0 3
v 5 1 9
v 5 1 8
v 5 1 7
v 5 1 6
v 5 1 4
v 5 4 9
v 5 4 8
v 5 4 7
v 5 4 6
v 5 4 4
v 5 5 15
v 5 5 14
v 5 5 8
v 5 5 7
v 5 5 6
v 5 5 3
v 9 1 15
v 9 1 14
v 9 1 4
v 9 1 3
v 9 4 15
v 9 4 14
v 9 4 4
v 9 4 3
v -9 1 15
v -9 1 14
v -9 1 4
v -9 1 3
v -9 4 15
v -9 4 14
v -9 4 4
v -9 4 3
v -5 0 15
v -5 0 14
v -5 0 8
v -5 0 7
v -5 0 6
v -5 0 3
v -5 1 9
v -5 1 8
v -5 1 7
v -5 1 6
v -5 1 4
v -5 4 9
v -5 4 8
v -5 4 7
v -5 4 6
v -5 4 4
v -5 5 15
v -5 5 14
v -5 5 8
v -5 5 7
v -5 5 6
v -5 5 3
v -1 5 9
v -1 5 3
v -1 6 4
v -1 6 3
v -1 7 9
v -1 7 4
v 2 5 9
v 2 5 3
v 2 6 4
v 2 6 3
v 2 7 9
v 2 7 4
v 4 0 10
v 4 0 -1
v 4 1 9
v 4 1 4
v 4 4 9
v 4 4 4
v 4 5 10
v 4 5 -1
v 6 1 15
v 6 1 14
v 6 1 4
v 6 1 3
v 6 4 15
v 6 4 14
v 6 4 4
v 6 4 3
v 10 0 15
v 10 0 14
v 10 0 8
v 10 0 7
v 10 0 6
v 10 0 3
v 10 5 15
v 10 5 14
v 10 5 8
v 10 5 7
v 10 5 6
v 10 5 3
v -10 0 15
v -10 5 15
v -9 1 15
v -9 4 15
v -6 1 15
v -6 4 15
v -5 0 15
v -5 5 15
v 5 0 15
v 5 5 15
v 6 1 15
v 6 4 15
v 9 1 15
v 9 4 15
v 10 0 15
v 10 5 15
v -9 1 14
v -9 4 14
v -6 1 14
v -6 4 14
v 6 1 14
v 6 4 14
v 9 1 14
v 9 4 14
v -4 0 10
v -4 5 10
v 4 0 10
v 4 5 10
v -5 1 9
v -5 4 9
v -4 1 9
v -4 4 9
v -2 5 9
v -2 7 9
v -1 5 9
v -1 7 9
v 1 5 9
v 1 7 9
v 2 5 9
v 2 7 9
v 4 1 9
v 4 4 9
v 5 1 9
v 5 4 9
v -9 1 4
v -9 4 4
v -6 1 4
v -6 4 4
v -5 1 4
v -5 4 4
v -4 1 4
v -4 4 4
v -2 6 4
v -2 7 4
v -1 6 4
v -1 7 4
v 1 6 4
v 1 7 4
v 2 6 4
v 2 7 4
v 4 1 4
v 4 4 4
v 5 1 4
v 5 4 4
v 6 1 4
v 6 4 4
v 9 1 4
v 9 4 4
v -10 0 3
v -10 5 3
v -9 1 3
v -9 4 3
v -6 1 3
v -6 4 3
v -5 0 3
v -5 5 3
v -2 5 3
v -2 6 3
v -1 5 3
v -1 6 3
v 1 5 3
v 1 6 3
v 2 5 3
v 2 6 3
v 5 0 3
v 5 5 3
v 6 1 3
v 6 4 3
v 9 1 3
v 9 4 3
v 10 0 3
v 10 5 3
v -4 0 -1
v -4 5 -1
v -3 2 -1
v -3 5 -1
v 3 2 -1
v 3 5 -1
v 4 0 -1
v 4 5 -1
v -10 0 15
v -5 0 15
v 5 0 15
v 10 0 15
v -10 0 14
v -5 0 14
v 5 0 14
v 10 0 14
v -4 0 10
v 4 0 10
v -10 0 8
v -5 0 8
v 5 0 8
v 10 0 8
v -10 0 7
v -5 0 7
v 5 0 7
v 10 0 7
v -10 0 6
v -5 0 6
v 5 0 6
v 10 0 6
v -10 0 3
v -5 0 3
v 5 0 3
v 10 0 3
v -4 0 -1
v 4 0 -1
v -5 1 9
v -4 1 9
v 4 1 9
v 5 1 9
v -5 1 8
v 5 1 8
v -5 1 7
v 5 1 7
v -5 1 6
v 5 1 6
v -5 1 4
v -4 1 4
v 4 1 4
v 5 1 4
v -9 4 15
v -6 4 15
v 6 4 15
v 9 4 15
v -9 4 14
v -6 4 14
v 6 4 14
v 9 4 14
v -9 4 4
v -6 4 4
v 6 4 4
v 9 4 4
v -9 4 3
v -6 4 3
v 6 4 3
v 9 4 3
v -9 1 15
v -6 1 15
v 6 1 15
v 9 1 15
v -9 1 14
v -6 1 14
v 6 1 14
v 9 1 14
v -9 1 4
v -6 1 4
v 6 1 4
v 9 1 4
v -9 1 3
v -6 1 3
v 6 1 3
v 9 1 3
v -5 4 9
v -4 4 9
v 4 4 9
v 5 4 9
v -5 4 8
v 5 4 8
v -5 4 7
v 5 4 7
v -5 4 6
v 5 4 6
v -5 4 4
v -4 4 4
v 4 4 4
v 5 4 4
v -10 5 15
v -5 5 15
v 5 5 15
v 10 5 15
v -10 5 14
v -5 5 14
v 5 5 14
v 10 5 14
v -4 5 10
v 4 5 10
v -3 5 9
v -2 5 9
v -1 5 9
v 1 5 9
v 2 5 9
v 3 5 9
v -10 5 8
v -5 5 8
v 5 5 8
v 10 5 8
v -10 5 7
v -5 5 7
v 5 5 7
v 10 5 7
v -10 5 6
v -5 5 6
v 5 5 6
v 10 5 6
v -10 5 3
v -5 5 3
v -2 5 3
v -1 5 3
v 1 5 3
v 2 5 3
v 5 5 3
v 10 5 3
v -3 5 2
v -2 5 2
v -1 5 2
v 1 5 2
v 2 5 2
v 3 5 2
v -3 5 1
v 3 5 1
v -4 5 -1
v -3 5 -1
v 3 5 -1
v 4 5 -1
v -2 6 4
v -1 6 4
v 1 6 4
v 2 6 4
v -2 6 3
v -1 6 3
v 1 6 3
v 2 6 3
v -2 7 9
v -1 7 9
v 1 7 9
v 2 7 9
v -2 7 4
v -1 7 4
v 1 7 4
v 2 7 4

# faces
f 7/5/1 2/5/1 1/5/1
f 8/3/1 3/3/1 2/3/1
f 8/5/1 2/5/1 7/5/1
f 9/1/1 4/1/1 3/1/1
f 9/3/1 3/3/1 8/3/1
f 10/3/1 5/3/1 4/3/1
f 10/1/1 4/1/1 9/1/1
f 11/1/1 6/1/1 5/1/1
f 11/3/1 5/3/1 10/3/1
f 12/1/1 6/1/1 11/1/1
f 17/5/1 14/5/1 13/5/1
f 18/5/1 14/5/1 17/5/1
f 19/1/1 16/1/1 15/1/1
f 20/1/1 16/1/1 19/1/1
f 23/3/1 22/3/1 21/3/1
f 24/3/1 22/3/1 23/3/1
f 25/3/1 23/3/1 21/3/1
f 26/3/1 22/3/1 24/3/1
f 27/3/1 25/3/1 21/3/1
f 27/3/1 26/3/1 25/3/1
f 28/3/1 22/3/1 26/3/1
f 28/3/1 26/3/1 27/3/1
f 31/3/1 30/3/1 29/3/1
f 32/3/1 30/3/1 31/3/1
f 33/3/1 31/3/1 29/3/1
f 34/3/1 31/3/1 33/3/1
f 37/3/1 36/3/1 35/3/1
f 38/3/1 36/3/1 37/3/1
f 39/3/1 37/3/1 35/3/1
f 40/3/1 37/3/1 39/3/1
f 47/3/1 43/3/1 42/3/1
f 48/1/1 44/1/1 43/1/1
f 48/3/1 43/3/1 47/3/1
f 49/3/1 45/3/1 44/3/1
f 49/1/1 44/1/1 48/1/1
f 50/1/1 46/1/1 45/1/1
f 50/3/1 45/3/1 49/3/1
f 51/1/1 46/1/1 50/1/1
f 52/3/1 47/3/1 42/3/1
f 56/1/1 46/1/1 51/1/1
f 57/5/1 42/5/1 41/5/1
f 58/3/1 52/3/1 42/3/1
f 58/5/1 42/5/1 57/5/1
f 58/3/1 53/3/1 52/3/1
f 59/1/1 54/1/1 53/1/1
f 59/3/1 53/3/1 58/3/1
f 60/3/1 55/3/1 54/3/1
f 60/1/1 54/1/1 59/1/1
f 61/1/1 56/1/1 55/1/1
f 61/3/1 55/3/1 60/3/1
f 62/1/1 46/1/1 56/1/1
f 62/1/1 56/1/1 61/1/1
f 67/5/1 64/5/1 63/5/1
f 68/5/1 64/5/1 67/5/1
f 69/1/1 66/1/1 65/1/1
f 70/1/1 66/1/1 69/1/1
f 71/5/2 72/5/2 75/5/2
f 75/5/2 72/5/2 76/5/2
f 73/1/2 74/1/2 77/1/2
f 77/1/2 74/1/2 78/1/2
f 80/3/2 81/3/2 85/3/2
f 81/1/2 82/1/2 86/1/2
f 85/3/2 81/3/2 86/3/2
f 82/3/2 83/3/2 87/3/2
f 86/1/2 82/1/2 87/1/2
f 83/1/2 84/1/2 88/1/2
f 87/3/2 83/3/2 88/3/2
f 88/1/2 84/1/2 89/1/2
f 80/3/2 85/3/2 90/3/2
f 89/1/2 84/1/2 94/1/2
f 79/5/2 80/5/2 95/5/2
f 80/3/2 90/3/2 96/3/2
f 95/5/2 80/5/2 96/5/2
f 90/3/2 91/3/2 96/3/2
f 91/1/2 92/1/2 97/1/2
f 96/3/2 91/3/2 97/3/2
f 92/3/2 93/3/2 98/3/2
f 97/1/2 92/1/2 98/1/2
f 93/1/2 94/1/2 99/1/2
f 98/3/2 93/3/2 99/3/2
f 94/1/2 84/1/2 100/1/2
f 99/1/2 94/1/2 100/1/2
f 101/3/2 102/3/2 103/3/2
f 103/3/2 102/3/2 104/3/2
f 101/3/2 103/3/2 105/3/2
f 105/3/2 103/3/2 106/3/2
f 107/3/2 108/3/2 109/3/2
f 109/3/2 108/3/2 110/3/2
f 107/3/2 109/3/2 111/3/2
f 111/3/2 109/3/2 112/3/2
f 113/3/2 114/3/2 115/3/2
f 115/3/2 114/3/2 116/3/2
f 113/3/2 115/3/2 117/3/2
f 116/3/2 114/3/2 118/3/2
f 113/3/2 117/3/2 119/3/2
f 117/3/2 118/3/2 119/3/2
f 118/3/2 114/3/2 120/3/2
f 119/3/2 118/3/2 120/3/2
f 121/5/2 122/5/2 125/5/2
f 125/5/2 122/5/2 126/5/2
f 123/1/2 124/1/2 127/1/2
f 127/1/2 124/1/2 128/1/2
f 129/5/2 130/5/2 135/5/2
f 130/3/2 131/3/2 136/3/2
f 135/5/2 130/5/2 136/5/2
f 131/1/2 132/1/2 137/1/2
f 136/3/2 131/3/2 137/3/2
f 132/3/2 133/3/2 138/3/2
f 137/1/2 132/1/2 138/1/2
f 133/1/2 134/1/2 139/1/2
f 138/3/2 133/3/2 139/3/2
f 139/1/2 134/1/2 140/1/2
f 143/5/3 142/5/3 141/5/3
f 144/5/3 142/5/3 143/5/3
f 145/5/3 143/5/3 141/5/3
f 146/5/3 142/5/3 144/5/3
f 147/5/3 145/5/3 141/5/3
f 147/5/3 146/5/3 145/5/3
f 148/5/3 142/5/3 146/5/3
f 148/5/3 146/5/3 147/5/3
f 151/5/3 150/5/3 149/5/3
f 152/5/3 150/5/3 151/5/3
f 153/5/3 151/5/3 149/5/3
f 154/5/3 150/5/3 152/5/3
f 155/5/3 153/5/3 149/5/3
f 155/5/3 154/5/3 153/5/3
f 156/5/3 150/5/3 154/5/3
f 156/5/3 154/5/3 155/5/3
f 159/7/3 158/7/3 157/7/3
f 160/7/3 158/7/3 159/7/3
f 163/7/3 162/7/3 161/7/3
f 164/7/3 162/7/3 163/7/3
f 167/3/3 166/3/3 165/3/3
f 168/3/3 166/3/3 167/3/3
f 171/3/3 170/3/3 169/3/3
f 172/3/3 170/3/3 171/3/3
f 175/3/3 174/3/3 173/3/3
f 176/3/3 174/3/3 175/3/3
f 179/3/3 178/3/3 177/3/3
f 180/3/3 178/3/3 179/3/3
f 183/3/3 182/3/3 181/3/3
f 184/3/3 182/3/3 183/3/3
f 185/6/4 186/6/4 187/6/4
f 187/6/4 186/6/4 188/6/4
f 189/3/4 190/3/4 191/3/4
f 191/3/4 190/3/4 192/3/4
f 193/3/4 194/3/4 195/3/4
f 195/3/4 194/3/4 196/3/4
f 197/3/4 198/3/4 199/3/4
f 199/3/4 198/3/4 200/3/4
f 201/3/4 202/3/4 203/3/4
f 203/3/4 202/3/4 204/3/4
f 205/6/4 206/6/4 207/6/4
f 207/6/4 206/6/4 208/6/4
f 209/1/4 210/1/4 211/1/4
f 211/1/4 210/1/4 212/1/4
f 209/1/4 211/1/4 213/1/4
f 212/1/4 210/1/4 214/1/4
f 209/1/4 213/1/4 215/1/4
f 213/1/4 214/1/4 215/1/4
f 214/1/4 210/1/4 216/1/4
f 215/1/4 214/1/4 216/1/4
f 217/3/4 218/3/4 219/3/4
f 219/3/4 218/3/4 220/3/4
f 221/3/4 222/3/4 223/3/4
f 223/3/4 222/3/4 224/3/4
f 225/1/4 226/1/4 227/1/4
f 227/1/4 226/1/4 228/1/4
f 225/1/4 227/1/4 229/1/4
f 228/1/4 226/1/4 230/1/4
f 225/1/4 229/1/4 231/1/4
f 229/1/4 230/1/4 231/1/4
f 230/1/4 226/1/4 232/1/4
f 231/1/4 230/1/4 232/1/4
f 233/3/4 234/3/4 235/3/4
f 235/3/4 234/3/4 236/3/4
f 233/3/4 235/3/4 237/3/4
f 235/2/4 236/2/4 237/2/4
f 237/2/4 236/2/4 238/2/4
f 233/3/4 237/3/4 239/3/4
f 237/3/4 238/3/4 239/3/4
f 239/3/4 238/3/4 240/3/4
f 245/5/5 242/5/5 241/5/5
f 246/5/5 242/5/5 245/5/5
f 247/5/5 244/5/5 243/5/5
f 248/5/5 244/5/5 247/5/5
f 251/3/5 246/3/5 245/3/5
f 252/3/5 246/3/5 251/3/5
f 253/3/5 248/3/5 247/3/5
f 254/3/5 248/3/5 253/3/5
f 255/1/5 252/1/5 251/1/5
f 256/1/5 252/1/5 255/1/5
f 257/1/5 254/1/5 253/1/5
f 258/1/5 254/1/5 257/1/5
f 259/3/5 256/3/5 255/3/5
f 260/3/5 256/3/5 259/3/5
f 261/3/5 258/3/5 257/3/5
f 262/3/5 258/3/5 261/3/5
f 263/1/5 260/1/5 259/1/5
f 264/1/5 260/1/5 263/1/5
f 265/1/5 262/1/5 261/1/5
f 266/1/5 262/1/5 265/1/5
f 267/3/5 250/3/5 249/3/5
f 268/3/5 250/3/5 267/3/5
f 273/3/5 270/3/5 269/3/5
f 274/3/5 272/3/5 271/3/5
f 275/3/5 270/3/5 273/3/5
f 276/3/5 274/3/5 271/3/5
f 277/3/5 270/3/5 275/3/5
f 278/3/5 276/3/5 271/3/5
f 279/3/5 270/3/5 277/3/5
f 280/3/5 270/3/5 279/3/5
f 281/3/5 278/3/5 271/3/5
f 282/3/5 278/3/5 281/3/5
f 287/5/5 284/5/5 283/5/5
f 288/5/5 284/5/5 287/5/5
f 289/5/5 286/5/5 285/5/5
f 290/5/5 286/5/5 289/5/5
f 295/1/5 292/1/5 291/1/5
f 296/1/5 292/1/5 295/1/5
f 297/1/5 294/1/5 293/1/5
f 298/1/5 294/1/5 297/1/5
f 299/5/6 300/5/6 303/5/6
f 303/5/6 300/5/6 304/5/6
f 301/5/6 302/5/6 305/5/6
f 305/5/6 302/5/6 306/5/6
f 307/1/6 308/1/6 311/1/6
f 311/1/6 308/1/6 312/1/6
f 309/1/6 310/1/6 313/1/6
f 313/1/6 310/1/6 314/1/6
f 315/3/6 316/3/6 319/3/6
f 317/3/6 318/3/6 320/3/6
f 319/3/6 316/3/6 321/3/6
f 317/3/6 320/3/6 322/3/6
f 321/3/6 316/3/6 323/3/6
f 317/3/6 322/3/6 324/3/6
f 323/3/6 316/3/6 325/3/6
f 325/3/6 316/3/6 326/3/6
f 317/3/6 324/3/6 327/3/6
f 327/3/6 324/3/6 328/3/6
f 329/5/6 330/5/6 333/5/6
f 333/5/6 330/5/6 334/5/6
f 331/5/6 332/5/6 335/5/6
f 335/5/6 332/5/6 336/5/6
f 337/3/6 338/3/6 339/3/6
f 339/3/6 338/3/6 340/3/6
f 340/3/6 338/3/6 341/3/6
f 341/3/6 338/3/6 342/3/6
f 342/3/6 338/3/6 343/3/6
f 343/3/6 338/3/6 344/3/6
f 333/3/6 334/3/6 345/3/6
f 345/3/6 334/3/6 346/3/6
f 335/3/6 336/3/6 347/3/6
f 347/3/6 336/3/6 348/3/6
f 345/1/6 346/1/6 349/1/6
f 349/1/6 346/1/6 350/1/6
f 347/1/6 348/1/6 351/1/6
f 351/1/6 348/1/6 352/1/6
f 349/3/6 350/3/6 353/3/6
f 353/3/6 350/3/6 354/3/6
f 351/3/6 352/3/6 355/3/6
f 355/3/6 352/3/6 356/3/6
f 353/1/6 354/1/6 357/1/6
f 357/1/6 354/1/6 358/1/6
f 339/4/6 340/4/6 359/4/6
f 341/4/6 342/4/6 360/4/6
f 360/4/6 342/4/6 361/4/6
f 343/4/6 344/4/6 362/4/6
f 355/1/6 356/1/6 363/1/6
f 363/1/6 356/1/6 364/1/6
f 337/3/6 339/3/6 365/3/6
f 339/4/6 359/4/6 365/4/6
f 359/3/6 360/3/6 366/3/6
f 365/4/6 359/4/6 366/4/6
f 360/4/6 361/4/6 367/4/6
f 366/3/6 360/3/6 367/3/6
f 361/3/6 362/3/6 368/3/6
f 367/4/6 361/4/6 368/4/6
f 362/4/6 344/4/6 369/4/6
f 368/3/6 362/3/6 369/3/6
f 344/3/6 338/3/6 370/3/6
f 369/4/6 344/4/6 370/4/6
f 368/3/6 369/3/6 371/3/6
f 365/3/6 366/3/6 371/3/6
f 369/3/6 370/3/6 371/3/6
f 367/3/6 368/3/6 371/3/6
f 337/3/6 365/3/6 371/3/6
f 366/3/6 367/3/6 371/3/6
f 370/3/6 338/3/6 372/3/6
f 371/3/6 370/3/6 372/3/6
f 337/3/6 371/3/6 373/3/6
f 371/2/6 372/2/6 374/2/6
f 373/3/6 371/3/6 374/3/6
f 372/3/6 338/3/6 375/3/6
f 374/2/6 372/2/6 375/2/6
f 375/3/6 338/3/6 376/3/6
f 377/3/6 378/3/6 381/3/6
f 381/3/6 378/3/6 382/3/6
f 379/3/6 380/3/6 383/3/6
f 383/3/6 380/3/6 384/3/6
f 385/3/6 386/3/6 389/3/6
f 389/3/6 386/3/6 390/3/6
f 387/3/6 388/3/6 391/3/6
f 391/3/6 388/3/6 392/3/6
