# MagicaVoxel @ Ephtracy

# material
mtllib Enemy1.4.mtl
usemtl palette

# normals
vn -1 0 0
vn 1 0 0
vn 0 0 1
vn 0 0 -1
vn 0 -1 0
vn 0 1 0

# texcoords
vt 0.0449219 0.5
vt 0.552734 0.5
vt 0.779297 0.5
vt 0.958984 0.5
vt 0.962891 0.5
vt 0.986328 0.5
vt 0.990234 0.5

# verts
v -12 1 6
v -12 1 5
v -12 1 3
v -12 2 6
v -12 2 5
v -12 2 3
v -10 0 7
v -10 0 1
v -10 0 -0
v -10 1 6
v -10 1 3
v -10 2 6
v -10 2 3
v -10 3 7
v -10 3 1
v -10 3 -0
v -9 3 6
v -9 3 3
v -9 4 6
v -9 4 5
v -9 5 6
v -9 5 5
v -9 5 3
v -8 1 1
v -8 1 -0
v -8 2 1
v -8 2 -0
v -6 0 8
v -6 0 -4
v -6 1 6
v -6 1 1
v -6 1 -2
v -6 1 -3
v -6 2 6
v -6 2 1
v -6 2 -2
v -6 2 -3
v -6 3 8
v -6 3 -4
v -5 0 9
v -5 0 8
v -5 1 -4
v -5 1 -7
v -5 1 -8
v -5 2 -4
v -5 2 -7
v -5 2 -8
v -5 3 9
v -5 3 8
v -5 3 7
v -5 3 -0
v -5 4 7
v -5 4 -0
v -4 4 6
v -4 4 5
v -4 5 6
v -4 5 5
v -3 1 9
v -3 1 8
v -3 2 9
v -3 2 8
v -1 0 9
v -1 0 8
v -1 3 9
v -1 3 8
v -1 4 6
v -1 4 5
v -1 5 6
v -1 5 5
v 1 1 9
v 1 1 8
v 1 1 -4
v 1 1 -7
v 1 1 -8
v 1 2 9
v 1 2 8
v 1 2 -4
v 1 2 -7
v 1 2 -8
v 4 0 7
v 4 0 1
v 4 0 -0
v 4 1 6
v 4 1 1
v 4 2 6
v 4 2 1
v 4 3 7
v 4 3 1
v 4 3 -0
v 5 3 6
v 5 3 3
v 5 4 6
v 5 4 5
v 5 5 6
v 5 5 5
v 5 5 3
v 6 1 1
v 6 1 -0
v 6 2 1
v 6 2 -0
v -9 1 1
v -9 1 -0
v -9 2 1
v -9 2 -0
v -8 3 6
v -8 3 3
v -8 4 6
v -8 4 5
v -8 5 6
v -8 5 5
v -8 5 3
v -7 0 7
v -7 0 1
v -7 0 -0
v -7 1 6
v -7 1 1
v -7 2 6
v -7 2 1
v -7 3 7
v -7 3 1
v -7 3 -0
v -4 1 9
v -4 1 8
v -4 1 -4
v -4 1 -7
v -4 1 -8
v -4 2 9
v -4 2 8
v -4 2 -4
v -4 2 -7
v -4 2 -8
v -2 0 9
v -2 0 8
v -2 3 9
v -2 3 8
v -2 4 6
v -2 4 5
v -2 5 6
v -2 5 5
v 0 1 9
v 0 1 8
v 0 2 9
v 0 2 8
v 1 4 6
v 1 4 5
v 1 5 6
v 1 5 5
v 2 0 9
v 2 0 8
v 2 1 -4
v 2 1 -7
v 2 1 -8
v 2 2 -4
v 2 2 -7
v 2 2 -8
v 2 3 9
v 2 3 8
v 2 3 7
v 2 3 -0
v 2 4 7
v 2 4 -0
v 3 0 8
v 3 0 -4
v 3 1 6
v 3 1 1
v 3 1 -2
v 3 1 -3
v 3 2 6
v 3 2 1
v 3 2 -2
v 3 2 -3
v 3 3 8
v 3 3 -4
v 5 1 1
v 5 1 -0
v 5 2 1
v 5 2 -0
v 6 3 6
v 6 3 3
v 6 4 6
v 6 4 5
v 6 5 6
v 6 5 5
v 6 5 3
v 7 0 7
v 7 0 1
v 7 0 -0
v 7 1 6
v 7 1 3
v 7 2 6
v 7 2 3
v 7 3 7
v 7 3 1
v 7 3 -0
v 9 1 6
v 9 1 5
v 9 1 3
v 9 2 6
v 9 2 5
v 9 2 3
v -5 0 9
v -5 3 9
v -4 1 9
v -4 2 9
v -3 1 9
v -3 2 9
v -2 0 9
v -2 3 9
v -1 0 9
v -1 3 9
v 0 1 9
v 0 2 9
v 1 1 9
v 1 2 9
v 2 0 9
v 2 3 9
v -6 0 8
v -6 3 8
v -5 0 8
v -5 3 8
v -4 1 8
v -4 2 8
v -3 1 8
v -3 2 8
v -2 0 8
v -2 3 8
v -1 0 8
v -1 3 8
v 0 1 8
v 0 2 8
v 1 1 8
v 1 2 8
v 2 0 8
v 2 3 8
v 3 0 8
v 3 3 8
v -10 0 7
v -10 3 7
v -9 1 7
v -9 2 7
v -8 1 7
v -8 2 7
v -7 0 7
v -7 3 7
v -5 3 7
v -5 4 7
v 2 3 7
v 2 4 7
v 4 0 7
v 4 3 7
v 5 1 7
v 5 2 7
v 6 1 7
v 6 2 7
v 7 0 7
v 7 3 7
v -12 1 6
v -12 2 6
v -11 1 6
v -11 2 6
v -10 1 6
v -10 2 6
v -9 3 6
v -9 4 6
v -9 5 6
v -8 3 6
v -8 4 6
v -8 5 6
v -7 1 6
v -7 2 6
v -6 1 6
v -6 2 6
v -4 4 6
v -4 5 6
v -2 4 6
v -2 5 6
v -1 4 6
v -1 5 6
v 1 4 6
v 1 5 6
v 3 1 6
v 3 2 6
v 4 1 6
v 4 2 6
v 5 3 6
v 5 4 6
v 5 5 6
v 6 3 6
v 6 4 6
v 6 5 6
v 7 1 6
v 7 2 6
v 8 1 6
v 8 2 6
v 9 1 6
v 9 2 6
v -4 4 5
v -4 5 5
v -2 4 5
v -2 5 5
v -1 4 5
v -1 5 5
v 1 4 5
v 1 5 5
v -12 1 3
v -12 2 3
v -10 1 3
v -10 2 3
v -9 3 3
v -9 5 3
v -8 3 3
v -8 5 3
v 5 3 3
v 5 5 3
v 6 3 3
v 6 5 3
v 7 1 3
v 7 2 3
v 9 1 3
v 9 2 3
v -9 1 1
v -9 2 1
v -8 1 1
v -8 2 1
v -7 1 1
v -7 2 1
v -6 1 1
v -6 2 1
v 3 1 1
v 3 2 1
v 4 1 1
v 4 2 1
v 5 1 1
v 5 2 1
v 6 1 1
v 6 2 1
v -10 0 -0
v -10 3 -0
v -9 1 -0
v -9 2 -0
v -8 1 -0
v -8 2 -0
v -7 0 -0
v -7 3 -0
v -5 3 -0
v -5 4 -0
v -4 3 -0
v -4 4 -0
v 1 3 -0
v 1 4 -0
v 2 3 -0
v 2 4 -0
v 4 0 -0
v 4 3 -0
v 5 1 -0
v 5 2 -0
v 6 1 -0
v 6 2 -0
v 7 0 -0
v 7 3 -0
v -6 0 -4
v -6 3 -4
v -5 1 -4
v -5 2 -4
v -4 1 -4
v -4 2 -4
v -3 1 -4
v -3 2 -4
v -2 1 -4
v -2 2 -4
v -1 1 -4
v -1 2 -4
v 0 1 -4
v 0 2 -4
v 1 1 -4
v 1 2 -4
v 2 1 -4
v 2 2 -4
v 3 0 -4
v 3 3 -4
v -5 1 -8
v -5 2 -8
v -4 1 -8
v -4 2 -8
v 1 1 -8
v 1 2 -8
v 2 1 -8
v 2 2 -8
v -5 0 9
v -2 0 9
v -1 0 9
v 2 0 9
v -6 0 8
v -5 0 8
v -2 0 8
v -1 0 8
v 2 0 8
v 3 0 8
v -10 0 7
v -7 0 7
v 4 0 7
v 7 0 7
v -10 0 1
v -7 0 1
v 4 0 1
v 7 0 1
v -10 0 -0
v -7 0 -0
v 4 0 -0
v 7 0 -0
v -6 0 -4
v 3 0 -4
v -12 1 6
v -11 1 6
v -10 1 6
v -7 1 6
v -6 1 6
v 3 1 6
v 4 1 6
v 7 1 6
v 8 1 6
v 9 1 6
v -12 1 5
v -11 1 5
v 8 1 5
v 9 1 5
v -12 1 3
v -10 1 3
v 7 1 3
v 9 1 3
v -7 1 1
v -6 1 1
v 3 1 1
v 4 1 1
v -5 1 -4
v -4 1 -4
v 1 1 -4
v 2 1 -4
v -5 1 -7
v -4 1 -7
v 1 1 -7
v 2 1 -7
v -5 1 -8
v -4 1 -8
v 1 1 -8
v 2 1 -8
v -4 2 9
v -3 2 9
v 0 2 9
v 1 2 9
v -4 2 8
v -3 2 8
v 0 2 8
v 1 2 8
v -9 2 1
v -8 2 1
v 5 2 1
v 6 2 1
v -9 2 -0
v -8 2 -0
v 5 2 -0
v 6 2 -0
v -4 1 9
v -3 1 9
v 0 1 9
v 1 1 9
v -4 1 8
v -3 1 8
v 0 1 8
v 1 1 8
v -9 1 1
v -8 1 1
v 5 1 1
v 6 1 1
v -9 1 -0
v -8 1 -0
v 5 1 -0
v 6 1 -0
v -12 2 6
v -11 2 6
v -10 2 6
v -7 2 6
v -6 2 6
v 3 2 6
v 4 2 6
v 7 2 6
v 8 2 6
v 9 2 6
v -12 2 5
v -11 2 5
v 8 2 5
v 9 2 5
v -12 2 3
v -10 2 3
v 7 2 3
v 9 2 3
v -7 2 1
v -6 2 1
v 3 2 1
v 4 2 1
v -5 2 -4
v -4 2 -4
v 1 2 -4
v 2 2 -4
v -5 2 -7
v -4 2 -7
v 1 2 -7
v 2 2 -7
v -5 2 -8
v -4 2 -8
v 1 2 -8
v 2 2 -8
v -5 3 9
v -2 3 9
v -1 3 9
v 2 3 9
v -6 3 8
v -5 3 8
v -2 3 8
v -1 3 8
v 2 3 8
v 3 3 8
v -10 3 7
v -7 3 7
v -5 3 7
v 2 3 7
v 4 3 7
v 7 3 7
v -9 3 6
v -8 3 6
v 5 3 6
v 6 3 6
v -9 3 3
v -8 3 3
v 5 3 3
v 6 3 3
v -10 3 1
v -7 3 1
v 4 3 1
v 7 3 1
v -10 3 -0
v -7 3 -0
v -5 3 -0
v -4 3 -0
v 1 3 -0
v 2 3 -0
v 4 3 -0
v 7 3 -0
v -4 3 -1
v -3 3 -1
v 0 3 -1
v 1 3 -1
v -5 3 -2
v -4 3 -2
v -3 3 -2
v 0 3 -2
v 1 3 -2
v 2 3 -2
v -5 3 -3
v -4 3 -3
v 1 3 -3
v 2 3 -3
v -6 3 -4
v 3 3 -4
v -5 4 7
v 2 4 7
v -4 4 6
v -2 4 6
v -1 4 6
v 1 4 6
v -4 4 5
v -2 4 5
v -1 4 5
v 1 4 5
v -3 4 4
v 0 4 4
v -4 4 2
v -3 4 2
v 0 4 2
v 1 4 2
v -5 4 -0
v -4 4 -0
v 1 4 -0
v 2 4 -0
v -9 5 6
v -8 5 6
v -4 5 6
v -2 5 6
v -1 5 6
v 1 5 6
v 5 5 6
v 6 5 6
v -9 5 5
v -8 5 5
v -4 5 5
v -2 5 5
v -1 5 5
v 1 5 5
v 5 5 5
v 6 5 5
v -9 5 3
v -8 5 3
v 5 5 3
v 6 5 3

# faces
f 4/2/1 2/2/1 1/2/1
f 5/4/1 3/4/1 2/4/1
f 5/2/1 2/2/1 4/2/1
f 6/4/1 3/4/1 5/4/1
f 10/4/1 8/4/1 7/4/1
f 11/4/1 8/4/1 10/4/1
f 12/4/1 10/4/1 7/4/1
f 13/4/1 8/4/1 11/4/1
f 14/4/1 12/4/1 7/4/1
f 14/4/1 13/4/1 12/4/1
f 15/2/1 9/2/1 8/2/1
f 15/4/1 13/4/1 14/4/1
f 15/4/1 8/4/1 13/4/1
f 16/2/1 9/2/1 15/2/1
f 19/4/1 18/4/1 17/4/1
f 20/4/1 18/4/1 19/4/1
f 21/2/1 20/2/1 19/2/1
f 22/4/1 18/4/1 20/4/1
f 22/2/1 20/2/1 21/2/1
f 23/4/1 18/4/1 22/4/1
f 26/2/1 25/2/1 24/2/1
f 27/2/1 25/2/1 26/2/1
f 30/4/1 29/4/1 28/4/1
f 31/4/1 29/4/1 30/4/1
f 32/4/1 29/4/1 31/4/1
f 33/4/1 29/4/1 32/4/1
f 34/4/1 30/4/1 28/4/1
f 35/4/1 32/4/1 31/4/1
f 36/2/1 33/2/1 32/2/1
f 36/4/1 32/4/1 35/4/1
f 37/4/1 29/4/1 33/4/1
f 37/2/1 33/2/1 36/2/1
f 38/4/1 36/4/1 35/4/1
f 38/4/1 35/4/1 34/4/1
f 38/4/1 37/4/1 36/4/1
f 38/4/1 34/4/1 28/4/1
f 39/4/1 29/4/1 37/4/1
f 39/4/1 37/4/1 38/4/1
f 45/6/1 43/6/1 42/6/1
f 46/1/1 44/1/1 43/1/1
f 46/6/1 43/6/1 45/6/1
f 47/1/1 44/1/1 46/1/1
f 48/6/1 41/6/1 40/6/1
f 49/6/1 41/6/1 48/6/1
f 52/5/1 51/5/1 50/5/1
f 53/5/1 51/5/1 52/5/1
f 56/5/1 55/5/1 54/5/1
f 57/5/1 55/5/1 56/5/1
f 60/6/1 59/6/1 58/6/1
f 61/6/1 59/6/1 60/6/1
f 64/6/1 63/6/1 62/6/1
f 65/6/1 63/6/1 64/6/1
f 68/5/1 67/5/1 66/5/1
f 69/5/1 67/5/1 68/5/1
f 75/6/1 71/6/1 70/6/1
f 76/6/1 71/6/1 75/6/1
f 77/6/1 73/6/1 72/6/1
f 78/1/1 74/1/1 73/1/1
f 78/6/1 73/6/1 77/6/1
f 79/1/1 74/1/1 78/1/1
f 83/4/1 81/4/1 80/4/1
f 84/2/1 82/2/1 81/2/1
f 84/4/1 81/4/1 83/4/1
f 85/4/1 83/4/1 80/4/1
f 86/2/1 82/2/1 84/2/1
f 87/4/1 85/4/1 80/4/1
f 87/4/1 86/4/1 85/4/1
f 88/2/1 82/2/1 86/2/1
f 88/4/1 86/4/1 87/4/1
f 89/2/1 82/2/1 88/2/1
f 92/4/1 91/4/1 90/4/1
f 93/4/1 91/4/1 92/4/1
f 94/2/1 93/2/1 92/2/1
f 95/4/1 91/4/1 93/4/1
f 95/2/1 93/2/1 94/2/1
f 96/4/1 91/4/1 95/4/1
f 99/2/1 98/2/1 97/2/1
f 100/2/1 98/2/1 99/2/1
f 101/2/2 102/2/2 103/2/2
f 103/2/2 102/2/2 104/2/2
f 105/4/2 106/4/2 107/4/2
f 107/4/2 106/4/2 108/4/2
f 107/2/2 108/2/2 109/2/2
f 108/4/2 106/4/2 110/4/2
f 109/2/2 108/2/2 110/2/2
f 110/4/2 106/4/2 111/4/2
f 112/4/2 113/4/2 115/4/2
f 113/2/2 114/2/2 116/2/2
f 115/4/2 113/4/2 116/4/2
f 112/4/2 115/4/2 117/4/2
f 116/2/2 114/2/2 118/2/2
f 112/4/2 117/4/2 119/4/2
f 117/4/2 118/4/2 119/4/2
f 118/2/2 114/2/2 120/2/2
f 119/4/2 118/4/2 120/4/2
f 120/2/2 114/2/2 121/2/2
f 122/6/2 123/6/2 127/6/2
f 127/6/2 123/6/2 128/6/2
f 124/6/2 125/6/2 129/6/2
f 125/1/2 126/1/2 130/1/2
f 129/6/2 125/6/2 130/6/2
f 130/1/2 126/1/2 131/1/2
f 132/6/2 133/6/2 134/6/2
f 134/6/2 133/6/2 135/6/2
f 136/5/2 137/5/2 138/5/2
f 138/5/2 137/5/2 139/5/2
f 140/6/2 141/6/2 142/6/2
f 142/6/2 141/6/2 143/6/2
f 144/5/2 145/5/2 146/5/2
f 146/5/2 145/5/2 147/5/2
f 150/6/2 151/6/2 153/6/2
f 151/1/2 152/1/2 154/1/2
f 153/6/2 151/6/2 154/6/2
f 154/1/2 152/1/2 155/1/2
f 148/6/2 149/6/2 156/6/2
f 156/6/2 149/6/2 157/6/2
f 158/5/2 159/5/2 160/5/2
f 160/5/2 159/5/2 161/5/2
f 162/4/2 163/4/2 164/4/2
f 164/4/2 163/4/2 165/4/2
f 165/4/2 163/4/2 166/4/2
f 166/4/2 163/4/2 167/4/2
f 162/4/2 164/4/2 168/4/2
f 165/4/2 166/4/2 169/4/2
f 166/2/2 167/2/2 170/2/2
f 169/4/2 166/4/2 170/4/2
f 167/4/2 163/4/2 171/4/2
f 170/2/2 167/2/2 171/2/2
f 169/4/2 170/4/2 172/4/2
f 168/4/2 169/4/2 172/4/2
f 170/4/2 171/4/2 172/4/2
f 162/4/2 168/4/2 172/4/2
f 171/4/2 163/4/2 173/4/2
f 172/4/2 171/4/2 173/4/2
f 174/2/2 175/2/2 176/2/2
f 176/2/2 175/2/2 177/2/2
f 178/4/2 179/4/2 180/4/2
f 180/4/2 179/4/2 181/4/2
f 180/2/2 181/2/2 182/2/2
f 181/4/2 179/4/2 183/4/2
f 182/2/2 181/2/2 183/2/2
f 183/4/2 179/4/2 184/4/2
f 185/4/2 186/4/2 188/4/2
f 188/4/2 186/4/2 189/4/2
f 185/4/2 188/4/2 190/4/2
f 189/4/2 186/4/2 191/4/2
f 185/4/2 190/4/2 192/4/2
f 190/4/2 191/4/2 192/4/2
f 186/2/2 187/2/2 193/2/2
f 192/4/2 191/4/2 193/4/2
f 191/4/2 186/4/2 193/4/2
f 193/2/2 187/2/2 194/2/2
f 195/2/2 196/2/2 198/2/2
f 196/4/2 197/4/2 199/4/2
f 198/2/2 196/2/2 199/2/2
f 199/4/2 197/4/2 200/4/2
f 203/6/3 202/6/3 201/6/3
f 204/6/3 202/6/3 203/6/3
f 205/6/3 203/6/3 201/6/3
f 206/6/3 202/6/3 204/6/3
f 207/6/3 205/6/3 201/6/3
f 207/6/3 206/6/3 205/6/3
f 208/6/3 202/6/3 206/6/3
f 208/6/3 206/6/3 207/6/3
f 211/6/3 210/6/3 209/6/3
f 212/6/3 210/6/3 211/6/3
f 213/6/3 211/6/3 209/6/3
f 214/6/3 210/6/3 212/6/3
f 215/6/3 213/6/3 209/6/3
f 215/6/3 214/6/3 213/6/3
f 216/6/3 210/6/3 214/6/3
f 216/6/3 214/6/3 215/6/3
f 219/4/3 218/4/3 217/4/3
f 220/4/3 218/4/3 219/4/3
f 223/7/3 222/7/3 221/7/3
f 224/7/3 222/7/3 223/7/3
f 227/4/3 226/4/3 225/4/3
f 228/4/3 226/4/3 227/4/3
f 231/7/3 230/7/3 229/7/3
f 232/7/3 230/7/3 231/7/3
f 235/4/3 234/4/3 233/4/3
f 236/4/3 234/4/3 235/4/3
f 239/4/3 238/4/3 237/4/3
f 240/4/3 238/4/3 239/4/3
f 241/4/3 239/4/3 237/4/3
f 241/2/3 240/2/3 239/2/3
f 242/4/3 238/4/3 240/4/3
f 242/2/3 240/2/3 241/2/3
f 243/4/3 241/4/3 237/4/3
f 243/4/3 242/4/3 241/4/3
f 244/4/3 238/4/3 242/4/3
f 244/4/3 242/4/3 243/4/3
f 247/5/3 246/5/3 245/5/3
f 248/5/3 246/5/3 247/5/3
f 251/4/3 250/4/3 249/4/3
f 252/4/3 250/4/3 251/4/3
f 253/4/3 251/4/3 249/4/3
f 253/2/3 252/2/3 251/2/3
f 254/4/3 250/4/3 252/4/3
f 254/2/3 252/2/3 253/2/3
f 255/4/3 253/4/3 249/4/3
f 255/4/3 254/4/3 253/4/3
f 256/4/3 250/4/3 254/4/3
f 256/4/3 254/4/3 255/4/3
f 259/2/3 258/2/3 257/2/3
f 260/2/3 258/2/3 259/2/3
f 261/4/3 260/4/3 259/4/3
f 262/4/3 260/4/3 261/4/3
f 266/4/3 264/4/3 263/4/3
f 267/2/3 265/2/3 264/2/3
f 267/4/3 264/4/3 266/4/3
f 268/2/3 265/2/3 267/2/3
f 271/4/3 270/4/3 269/4/3
f 272/4/3 270/4/3 271/4/3
f 275/5/3 274/5/3 273/5/3
f 276/5/3 274/5/3 275/5/3
f 279/5/3 278/5/3 277/5/3
f 280/5/3 278/5/3 279/5/3
f 283/4/3 282/4/3 281/4/3
f 284/4/3 282/4/3 283/4/3
f 288/4/3 286/4/3 285/4/3
f 289/2/3 287/2/3 286/2/3
f 289/4/3 286/4/3 288/4/3
f 290/2/3 287/2/3 289/2/3
f 293/4/3 292/4/3 291/4/3
f 294/4/3 292/4/3 293/4/3
f 295/2/3 294/2/3 293/2/3
f 296/2/3 294/2/3 295/2/3
f 297/5/4 298/5/4 299/5/4
f 299/5/4 298/5/4 300/5/4
f 301/5/4 302/5/4 303/5/4
f 303/5/4 302/5/4 304/5/4
f 305/4/4 306/4/4 307/4/4
f 307/4/4 306/4/4 308/4/4
f 309/4/4 310/4/4 311/4/4
f 311/4/4 310/4/4 312/4/4
f 313/4/4 314/4/4 315/4/4
f 315/4/4 314/4/4 316/4/4
f 317/4/4 318/4/4 319/4/4
f 319/4/4 318/4/4 320/4/4
f 321/6/4 322/6/4 323/6/4
f 323/6/4 322/6/4 324/6/4
f 325/4/4 326/4/4 327/4/4
f 327/4/4 326/4/4 328/4/4
f 329/4/4 330/4/4 331/4/4
f 331/4/4 330/4/4 332/4/4
f 333/6/4 334/6/4 335/6/4
f 335/6/4 334/6/4 336/6/4
f 337/2/4 338/2/4 339/2/4
f 339/2/4 338/2/4 340/2/4
f 337/2/4 339/2/4 341/2/4
f 340/2/4 338/2/4 342/2/4
f 337/2/4 341/2/4 343/2/4
f 341/2/4 342/2/4 343/2/4
f 342/2/4 338/2/4 344/2/4
f 343/2/4 342/2/4 344/2/4
f 345/5/4 346/5/4 347/5/4
f 347/5/4 346/5/4 348/5/4
f 347/3/4 348/3/4 349/3/4
f 349/3/4 348/3/4 350/3/4
f 349/5/4 350/5/4 351/5/4
f 351/5/4 350/5/4 352/5/4
f 353/2/4 354/2/4 355/2/4
f 355/2/4 354/2/4 356/2/4
f 353/2/4 355/2/4 357/2/4
f 356/2/4 354/2/4 358/2/4
f 353/2/4 357/2/4 359/2/4
f 357/2/4 358/2/4 359/2/4
f 358/2/4 354/2/4 360/2/4
f 359/2/4 358/2/4 360/2/4
f 361/4/4 362/4/4 363/4/4
f 363/4/4 362/4/4 364/4/4
f 361/4/4 363/4/4 365/4/4
f 364/4/4 362/4/4 366/4/4
f 361/4/4 365/4/4 367/4/4
f 365/4/4 366/4/4 367/4/4
f 366/4/4 362/4/4 368/4/4
f 367/4/4 366/4/4 368/4/4
f 361/4/4 367/4/4 369/4/4
f 367/2/4 368/2/4 369/2/4
f 368/4/4 362/4/4 370/4/4
f 369/2/4 368/2/4 370/2/4
f 361/4/4 369/4/4 371/4/4
f 369/4/4 370/4/4 371/4/4
f 370/4/4 362/4/4 372/4/4
f 371/4/4 370/4/4 372/4/4
f 361/4/4 371/4/4 373/4/4
f 371/2/4 372/2/4 373/2/4
f 372/4/4 362/4/4 374/4/4
f 373/2/4 372/2/4 374/2/4
f 361/4/4 373/4/4 375/4/4
f 373/4/4 374/4/4 375/4/4
f 374/4/4 362/4/4 376/4/4
f 375/4/4 374/4/4 376/4/4
f 361/4/4 375/4/4 377/4/4
f 376/4/4 362/4/4 378/4/4
f 361/4/4 377/4/4 379/4/4
f 377/4/4 378/4/4 379/4/4
f 378/4/4 362/4/4 380/4/4
f 379/4/4 378/4/4 380/4/4
f 381/1/4 382/1/4 383/1/4
f 383/1/4 382/1/4 384/1/4
f 385/1/4 386/1/4 387/1/4
f 387/1/4 386/1/4 388/1/4
f 394/6/5 390/6/5 389/6/5
f 395/6/5 390/6/5 394/6/5
f 396/6/5 392/6/5 391/6/5
f 397/6/5 392/6/5 396/6/5
f 403/4/5 400/4/5 399/4/5
f 404/4/5 400/4/5 403/4/5
f 405/4/5 402/4/5 401/4/5
f 406/4/5 402/4/5 405/4/5
f 407/2/5 404/2/5 403/2/5
f 408/2/5 404/2/5 407/2/5
f 409/2/5 406/2/5 405/2/5
f 410/2/5 406/2/5 409/2/5
f 411/4/5 395/4/5 394/4/5
f 411/4/5 394/4/5 393/4/5
f 411/4/5 396/4/5 395/4/5
f 411/4/5 397/4/5 396/4/5
f 411/4/5 398/4/5 397/4/5
f 412/4/5 398/4/5 411/4/5
f 423/2/5 414/2/5 413/2/5
f 424/4/5 415/4/5 414/4/5
f 424/2/5 414/2/5 423/2/5
f 425/2/5 422/2/5 421/2/5
f 425/4/5 421/4/5 420/4/5
f 426/2/5 422/2/5 425/2/5
f 427/4/5 424/4/5 423/4/5
f 428/4/5 415/4/5 424/4/5
f 428/4/5 424/4/5 427/4/5
f 429/4/5 425/4/5 420/4/5
f 429/4/5 426/4/5 425/4/5
f 430/4/5 426/4/5 429/4/5
f 431/4/5 417/4/5 416/4/5
f 432/4/5 417/4/5 431/4/5
f 433/4/5 419/4/5 418/4/5
f 434/4/5 419/4/5 433/4/5
f 439/6/5 436/6/5 435/6/5
f 440/6/5 436/6/5 439/6/5
f 441/6/5 438/6/5 437/6/5
f 442/6/5 438/6/5 441/6/5
f 443/1/5 440/1/5 439/1/5
f 444/1/5 440/1/5 443/1/5
f 445/1/5 442/1/5 441/1/5
f 446/1/5 442/1/5 445/1/5
f 451/6/5 448/6/5 447/6/5
f 452/6/5 448/6/5 451/6/5
f 453/6/5 450/6/5 449/6/5
f 454/6/5 450/6/5 453/6/5
f 459/2/5 456/2/5 455/2/5
f 460/2/5 456/2/5 459/2/5
f 461/2/5 458/2/5 457/2/5
f 462/2/5 458/2/5 461/2/5
f 463/6/6 464/6/6 467/6/6
f 467/6/6 464/6/6 468/6/6
f 465/6/6 466/6/6 469/6/6
f 469/6/6 466/6/6 470/6/6
f 471/2/6 472/2/6 475/2/6
f 475/2/6 472/2/6 476/2/6
f 473/2/6 474/2/6 477/2/6
f 477/2/6 474/2/6 478/2/6
f 479/2/6 480/2/6 489/2/6
f 480/4/6 481/4/6 490/4/6
f 489/2/6 480/2/6 490/2/6
f 487/2/6 488/2/6 491/2/6
f 486/4/6 487/4/6 491/4/6
f 491/2/6 488/2/6 492/2/6
f 489/4/6 490/4/6 493/4/6
f 490/4/6 481/4/6 494/4/6
f 493/4/6 490/4/6 494/4/6
f 486/4/6 491/4/6 495/4/6
f 491/4/6 492/4/6 495/4/6
f 495/4/6 492/4/6 496/4/6
f 482/4/6 483/4/6 497/4/6
f 497/4/6 483/4/6 498/4/6
f 484/4/6 485/4/6 499/4/6
f 499/4/6 485/4/6 500/4/6
f 501/6/6 502/6/6 505/6/6
f 505/6/6 502/6/6 506/6/6
f 503/6/6 504/6/6 507/6/6
f 507/6/6 504/6/6 508/6/6
f 505/1/6 506/1/6 509/1/6
f 509/1/6 506/1/6 510/1/6
f 507/1/6 508/1/6 511/1/6
f 511/1/6 508/1/6 512/1/6
f 513/6/6 514/6/6 518/6/6
f 518/6/6 514/6/6 519/6/6
f 515/6/6 516/6/6 520/6/6
f 520/6/6 516/6/6 521/6/6
f 518/4/6 519/4/6 525/4/6
f 517/4/6 518/4/6 525/4/6
f 521/4/6 522/4/6 525/4/6
f 520/4/6 521/4/6 525/4/6
f 519/4/6 520/4/6 525/4/6
f 525/4/6 522/4/6 526/4/6
f 523/4/6 524/4/6 529/4/6
f 529/4/6 524/4/6 530/4/6
f 527/4/6 528/4/6 531/4/6
f 531/4/6 528/4/6 532/4/6
f 523/4/6 529/4/6 533/4/6
f 530/4/6 524/4/6 534/4/6
f 527/4/6 531/4/6 535/4/6
f 532/4/6 528/4/6 536/4/6
f 523/4/6 533/4/6 537/4/6
f 533/4/6 534/4/6 537/4/6
f 534/4/6 524/4/6 538/4/6
f 537/4/6 534/4/6 538/4/6
f 535/4/6 536/4/6 539/4/6
f 527/4/6 535/4/6 539/4/6
f 536/4/6 528/4/6 540/4/6
f 539/4/6 536/4/6 540/4/6
f 537/2/6 538/2/6 541/2/6
f 541/2/6 538/2/6 542/2/6
f 517/4/6 525/4/6 543/4/6
f 526/4/6 522/4/6 546/4/6
f 539/2/6 540/2/6 547/2/6
f 547/2/6 540/2/6 548/2/6
f 544/3/6 545/3/6 549/3/6
f 543/4/6 544/4/6 549/4/6
f 549/3/6 545/3/6 550/3/6
f 550/3/6 545/3/6 551/3/6
f 545/4/6 546/4/6 552/4/6
f 551/3/6 545/3/6 552/3/6
f 517/4/6 543/4/6 553/4/6
f 543/4/6 549/4/6 553/4/6
f 549/4/6 550/4/6 553/4/6
f 553/4/6 550/4/6 554/4/6
f 550/3/6 551/3/6 555/3/6
f 554/4/6 550/4/6 555/4/6
f 551/4/6 552/4/6 556/4/6
f 555/3/6 551/3/6 556/3/6
f 552/4/6 546/4/6 557/4/6
f 556/4/6 552/4/6 557/4/6
f 546/4/6 522/4/6 558/4/6
f 557/4/6 546/4/6 558/4/6
f 553/2/6 554/2/6 559/2/6
f 517/4/6 553/4/6 559/4/6
f 555/4/6 556/4/6 560/4/6
f 559/2/6 554/2/6 560/2/6
f 556/4/6 557/4/6 560/4/6
f 554/4/6 555/4/6 560/4/6
f 557/2/6 558/2/6 561/2/6
f 560/4/6 557/4/6 561/4/6
f 558/4/6 522/4/6 562/4/6
f 561/2/6 558/2/6 562/2/6
f 560/4/6 561/4/6 563/4/6
f 517/4/6 559/4/6 563/4/6
f 561/4/6 562/4/6 563/4/6
f 559/4/6 560/4/6 563/4/6
f 562/4/6 522/4/6 564/4/6
f 563/4/6 562/4/6 564/4/6
f 565/5/6 566/5/6 567/5/6
f 567/5/6 566/5/6 568/5/6
f 568/5/6 566/5/6 569/5/6
f 569/5/6 566/5/6 570/5/6
f 565/5/6 567/5/6 571/5/6
f 568/5/6 569/5/6 572/5/6
f 572/5/6 569/5/6 573/5/6
f 570/5/6 566/5/6 574/5/6
f 572/5/6 573/5/6 575/5/6
f 573/5/6 574/5/6 575/5/6
f 571/5/6 572/5/6 575/5/6
f 575/5/6 574/5/6 576/5/6
f 565/5/6 571/5/6 577/5/6
f 571/5/6 575/5/6 577/5/6
f 575/3/6 576/3/6 578/3/6
f 577/5/6 575/5/6 578/5/6
f 576/5/6 574/5/6 579/5/6
f 578/3/6 576/3/6 579/3/6
f 574/5/6 566/5/6 580/5/6
f 579/5/6 574/5/6 580/5/6
f 565/5/6 577/5/6 581/5/6
f 578/3/6 579/3/6 582/3/6
f 581/5/6 577/5/6 582/5/6
f 577/3/6 578/3/6 582/3/6
f 579/3/6 580/3/6 582/3/6
f 580/5/6 566/5/6 583/5/6
f 582/3/6 580/3/6 583/3/6
f 583/5/6 566/5/6 584/5/6
f 585/2/6 586/2/6 593/2/6
f 593/2/6 586/2/6 594/2/6
f 587/5/6 588/5/6 595/5/6
f 595/5/6 588/5/6 596/5/6
f 589/5/6 590/5/6 597/5/6
f 597/5/6 590/5/6 598/5/6
f 591/2/6 592/2/6 599/2/6
f 599/2/6 592/2/6 600/2/6
f 593/4/6 594/4/6 601/4/6
f 601/4/6 594/4/6 602/4/6
f 599/4/6 600/4/6 603/4/6
f 603/4/6 600/4/6 604/4/6
